<mxfile host="app.diagrams.net" modified="2022-10-12T21:33:15.834Z" agent="5.0 (Windows NT 10.0; Win64; x64) AppleWebKit/537.36 (KHTML, like Gecko) Chrome/99.0.4844.51 Safari/537.36" etag="NXOswwQkCn8u1o6NeHS_" version="20.4.0" type="github">
  <diagram id="CVncSvfTRXWKGD7XDJtc" name="Página-1">
    <mxGraphModel dx="3044" dy="1103" grid="1" gridSize="10" guides="1" tooltips="1" connect="1" arrows="1" fold="1" page="1" pageScale="1" pageWidth="827" pageHeight="1169" math="0" shadow="0">
      <root>
        <mxCell id="0" />
        <mxCell id="1" parent="0" />
        <mxCell id="DDqWL9d71qqnalIb0cQY-25" value="Otros proveedores" style="rounded=1;whiteSpace=wrap;html=1;strokeColor=default;fontFamily=calibri;fontSize=24;fontColor=#000000;fillColor=default;verticalAlign=top;" vertex="1" parent="1">
          <mxGeometry x="387.5" y="490" width="667.5" height="320" as="geometry" />
        </mxCell>
        <mxCell id="CizckSoqbS4Y71LwHCDJ-42" value="Principales Vendors" style="rounded=1;whiteSpace=wrap;html=1;strokeColor=default;fontFamily=calibri;fontSize=24;fontColor=#000000;fillColor=default;verticalAlign=top;" parent="1" vertex="1">
          <mxGeometry x="380" y="159" width="685" height="290" as="geometry" />
        </mxCell>
        <mxCell id="CizckSoqbS4Y71LwHCDJ-7" value="&lt;span data-reactroot=&quot;&quot; class=&quot;notion-enable-hover&quot; data-token-index=&quot;0&quot; style=&quot;font-size: 24px;&quot;&gt;&lt;b style=&quot;font-size: 24px;&quot;&gt;&lt;font style=&quot;font-size: 24px;&quot;&gt;Capacidades críticas(Gartner)&lt;/font&gt;&lt;/b&gt;&lt;/span&gt;" style="rounded=1;whiteSpace=wrap;html=1;fontFamily=calibri;fontSize=24;fontStyle=0;verticalAlign=top;" parent="1" vertex="1">
          <mxGeometry x="75" y="60" width="285" height="750" as="geometry" />
        </mxCell>
        <mxCell id="CizckSoqbS4Y71LwHCDJ-1" value="&lt;ul style=&quot;box-sizing: border-box; margin-top: 15px; margin-bottom: 0px; margin-left: 0px; padding-left: 0px; font-size: 24px; list-style: outside url(&amp;quot;data:image/gif;base64,R0lGODlhBQAKAIABAAAAAP///yH5BAEAAAEALAAAAAAFAAoAAAIIjI+ZwKwPUQEAOw==&amp;quot;) !important;&quot;&gt;&lt;li style=&quot;box-sizing: border-box; font-feature-settings: &amp;quot;ss05&amp;quot;; margin: 0px 0px 15px; line-height: 30px; list-style: none; padding-left: 16px; position: relative; font-size: 24px;&quot;&gt;&lt;font style=&quot;box-sizing: border-box; vertical-align: inherit; font-size: 24px;&quot;&gt;Configuración del producto&lt;/font&gt;&lt;/li&gt;&lt;/ul&gt;" style="rounded=1;whiteSpace=wrap;html=1;fontStyle=1;fontFamily=calibri;fontSize=24;fillColor=#dae8fc;strokeColor=#6c8ebf;align=center;" parent="1" vertex="1">
          <mxGeometry x="90" y="219" width="260" height="60" as="geometry" />
        </mxCell>
        <mxCell id="CizckSoqbS4Y71LwHCDJ-9" value="&lt;ul style=&quot;box-sizing: border-box; margin-top: 15px; margin-bottom: 0px; margin-left: 0px; padding-left: 0px; font-size: 24px; list-style: outside url(&amp;quot;data:image/gif;base64,R0lGODlhBQAKAIABAAAAAP///yH5BAEAAAEALAAAAAAFAAoAAAIIjI+ZwKwPUQEAOw==&amp;quot;) !important;&quot;&gt;&lt;li style=&quot;box-sizing: border-box; font-feature-settings: &amp;quot;ss05&amp;quot;; margin: 0px 0px 15px; line-height: 30px; list-style: none; padding-left: 16px; position: relative; font-size: 24px;&quot;&gt;&lt;font style=&quot;box-sizing: border-box; vertical-align: inherit; font-size: 24px;&quot;&gt;Gestión de reclamaciones&lt;/font&gt;&lt;/li&gt;&lt;/ul&gt;" style="rounded=1;whiteSpace=wrap;html=1;fontFamily=calibri;fontSize=24;fillColor=#dae8fc;strokeColor=#6c8ebf;fontStyle=1;labelBackgroundColor=none;align=center;" parent="1" vertex="1">
          <mxGeometry x="90" y="290" width="260" height="60" as="geometry" />
        </mxCell>
        <mxCell id="CizckSoqbS4Y71LwHCDJ-10" value="&lt;ul style=&quot;box-sizing: border-box; margin-top: 15px; margin-bottom: 0px; margin-left: 0px; padding-left: 0px; font-size: 24px; text-align: left; list-style: outside url(&amp;quot;data:image/gif;base64,R0lGODlhBQAKAIABAAAAAP///yH5BAEAAAEALAAAAAAFAAoAAAIIjI+ZwKwPUQEAOw==&amp;quot;) !important;&quot;&gt;&lt;li style=&quot;box-sizing: border-box; font-feature-settings: &amp;quot;ss05&amp;quot;; margin: 0px 0px 15px; line-height: 30px; list-style: none; padding-left: 16px; position: relative; font-size: 24px;&quot;&gt;&lt;font style=&quot;box-sizing: border-box; vertical-align: inherit; font-size: 24px;&quot;&gt;Soporte multicanal&lt;/font&gt;&lt;/li&gt;&lt;/ul&gt;" style="rounded=1;whiteSpace=wrap;html=1;fontFamily=calibri;fontSize=24;fillColor=#dae8fc;strokeColor=#6c8ebf;fontStyle=1;labelBackgroundColor=none;" parent="1" vertex="1">
          <mxGeometry x="90" y="360" width="260" height="60" as="geometry" />
        </mxCell>
        <mxCell id="CizckSoqbS4Y71LwHCDJ-11" value="&lt;ul style=&quot;box-sizing: border-box; margin-top: 15px; margin-bottom: 0px; margin-left: 0px; padding-left: 0px; font-size: 24px; text-align: left; list-style: outside url(&amp;quot;data:image/gif;base64,R0lGODlhBQAKAIABAAAAAP///yH5BAEAAAEALAAAAAAFAAoAAAIIjI+ZwKwPUQEAOw==&amp;quot;) !important;&quot;&gt;&lt;li style=&quot;box-sizing: border-box; font-feature-settings: &amp;quot;ss05&amp;quot;; margin: 0px 0px 15px; line-height: 30px; list-style: none; padding-left: 16px; position: relative; font-size: 24px;&quot;&gt;&lt;font style=&quot;box-sizing: border-box; vertical-align: inherit; font-size: 24px;&quot;&gt;Gestión de políticas&lt;/font&gt;&lt;/li&gt;&lt;/ul&gt;" style="rounded=1;whiteSpace=wrap;html=1;fontFamily=calibri;fontSize=24;fillColor=#dae8fc;strokeColor=#6c8ebf;fontStyle=1;labelBackgroundColor=none;" parent="1" vertex="1">
          <mxGeometry x="90" y="500" width="260" height="60" as="geometry" />
        </mxCell>
        <mxCell id="CizckSoqbS4Y71LwHCDJ-12" value="&lt;ul style=&quot;box-sizing: border-box; margin-top: 15px; margin-bottom: 0px; margin-left: 0px; padding-left: 0px; font-size: 24px; text-align: left; list-style: outside url(&amp;quot;data:image/gif;base64,R0lGODlhBQAKAIABAAAAAP///yH5BAEAAAEALAAAAAAFAAoAAAIIjI+ZwKwPUQEAOw==&amp;quot;) !important;&quot;&gt;&lt;li style=&quot;box-sizing: border-box; font-feature-settings: &amp;quot;ss05&amp;quot;; margin: 0px 0px 15px; line-height: 30px; list-style: none; padding-left: 16px; position: relative; font-size: 24px;&quot;&gt;&lt;font style=&quot;box-sizing: border-box; vertical-align: inherit; font-size: 24px;&quot;&gt;Datos y análisis&lt;/font&gt;&lt;/li&gt;&lt;/ul&gt;" style="rounded=1;whiteSpace=wrap;html=1;fontFamily=calibri;fontSize=24;fillColor=#dae8fc;strokeColor=#6c8ebf;fontStyle=1;labelBackgroundColor=none;" parent="1" vertex="1">
          <mxGeometry x="90" y="570" width="260" height="60" as="geometry" />
        </mxCell>
        <mxCell id="CizckSoqbS4Y71LwHCDJ-13" value="&lt;ul style=&quot;box-sizing: border-box; margin-top: 15px; margin-bottom: 0px; margin-left: 0px; padding-left: 0px; font-size: 24px; text-align: left; list-style: outside url(&amp;quot;data:image/gif;base64,R0lGODlhBQAKAIABAAAAAP///yH5BAEAAAEALAAAAAAFAAoAAAIIjI+ZwKwPUQEAOw==&amp;quot;) !important;&quot;&gt;&lt;li style=&quot;box-sizing: border-box; font-feature-settings: &amp;quot;ss05&amp;quot;; margin: 0px 0px 15px; line-height: 30px; list-style: none; padding-left: 16px; position: relative; font-size: 24px;&quot;&gt;&lt;font style=&quot;box-sizing: border-box; vertical-align: inherit; font-size: 24px;&quot;&gt;Internacionalidad&lt;/font&gt;&lt;/li&gt;&lt;/ul&gt;" style="rounded=1;whiteSpace=wrap;html=1;fontFamily=calibri;fontSize=24;fillColor=#dae8fc;strokeColor=#6c8ebf;fontStyle=1;labelBackgroundColor=none;" parent="1" vertex="1">
          <mxGeometry x="90" y="640" width="260" height="60" as="geometry" />
        </mxCell>
        <mxCell id="CizckSoqbS4Y71LwHCDJ-14" value="&lt;ul style=&quot;box-sizing: border-box; margin-top: 15px; margin-bottom: 0px; margin-left: 0px; padding-left: 0px; font-size: 24px; list-style: outside url(&amp;quot;data:image/gif;base64,R0lGODlhBQAKAIABAAAAAP///yH5BAEAAAEALAAAAAAFAAoAAAIIjI+ZwKwPUQEAOw==&amp;quot;) !important;&quot;&gt;&lt;li style=&quot;box-sizing: border-box; font-feature-settings: &amp;quot;ss05&amp;quot;; margin: 0px 0px 15px; line-height: 30px; list-style: none; padding-left: 16px; position: relative; font-size: 24px;&quot;&gt;&lt;font style=&quot;box-sizing: border-box; vertical-align: inherit; font-size: 24px;&quot;&gt;Apoyo a socios y ecosistemas&lt;/font&gt;&lt;/li&gt;&lt;/ul&gt;" style="rounded=1;whiteSpace=wrap;html=1;fontFamily=calibri;fontSize=24;align=center;fillColor=#dae8fc;strokeColor=#6c8ebf;fontStyle=1;labelBackgroundColor=none;" parent="1" vertex="1">
          <mxGeometry x="90" y="710" width="260" height="70" as="geometry" />
        </mxCell>
        <mxCell id="CizckSoqbS4Y71LwHCDJ-16" value="Plataforma All in one&amp;nbsp;" style="rounded=1;whiteSpace=wrap;html=1;fontFamily=calibri;fontSize=24;" parent="1" vertex="1">
          <mxGeometry x="380" y="110" width="682.5" height="40" as="geometry" />
        </mxCell>
        <mxCell id="CizckSoqbS4Y71LwHCDJ-22" value="Plataforma - Modular" style="rounded=1;whiteSpace=wrap;html=1;fontFamily=calibri;fontSize=24;" parent="1" vertex="1">
          <mxGeometry x="380" y="60" width="682.5" height="40" as="geometry" />
        </mxCell>
        <mxCell id="CizckSoqbS4Y71LwHCDJ-23" value="&lt;span data-reactroot=&quot;&quot; class=&quot;notion-enable-hover&quot; data-token-index=&quot;0&quot; style=&quot;font-size: 16px;&quot;&gt;Autos&lt;/span&gt;" style="rounded=1;whiteSpace=wrap;html=1;fontFamily=Verdana;fontSize=16;fontStyle=0" parent="1" vertex="1">
          <mxGeometry x="-450" y="120" width="120" height="60" as="geometry" />
        </mxCell>
        <mxCell id="CizckSoqbS4Y71LwHCDJ-24" value="&lt;span data-reactroot=&quot;&quot; class=&quot;notion-enable-hover&quot; data-token-index=&quot;0&quot; style=&quot;font-size: 16px;&quot;&gt;Salud y vida&lt;/span&gt;" style="rounded=1;whiteSpace=wrap;html=1;fontFamily=Verdana;fontSize=16;fontStyle=0;" parent="1" vertex="1">
          <mxGeometry x="-450" y="200" width="120" height="60" as="geometry" />
        </mxCell>
        <mxCell id="CizckSoqbS4Y71LwHCDJ-25" value="&lt;span data-reactroot=&quot;&quot; class=&quot;notion-enable-hover&quot; data-token-index=&quot;1&quot; style=&quot;font-size: 16px;&quot;&gt;Hogar&lt;/span&gt;" style="rounded=1;whiteSpace=wrap;html=1;fontFamily=Verdana;fontSize=16;" parent="1" vertex="1">
          <mxGeometry x="-450" y="270" width="120" height="60" as="geometry" />
        </mxCell>
        <mxCell id="CizckSoqbS4Y71LwHCDJ-26" value="&lt;span data-reactroot=&quot;&quot; class=&quot;notion-enable-hover&quot; data-token-index=&quot;0&quot; style=&quot;font-size: 16px;&quot;&gt;Empresas&lt;/span&gt;" style="rounded=1;whiteSpace=wrap;html=1;fontFamily=Verdana;fontSize=16;" parent="1" vertex="1">
          <mxGeometry x="-450" y="350" width="120" height="60" as="geometry" />
        </mxCell>
        <mxCell id="CizckSoqbS4Y71LwHCDJ-28" value="&lt;span data-reactroot=&quot;&quot; class=&quot;notion-enable-hover&quot; data-token-index=&quot;0&quot; style=&quot;fill: rgb(51, 126, 169); font-size: 24px;&quot;&gt;BriteCore&lt;/span&gt;" style="rounded=1;whiteSpace=wrap;html=1;strokeColor=#82b366;fontFamily=calibri;fontSize=24;fillColor=#EAFFE9;fontStyle=1;labelBackgroundColor=none;" parent="1" vertex="1">
          <mxGeometry x="425" y="555" width="290" height="60" as="geometry" />
        </mxCell>
        <mxCell id="CizckSoqbS4Y71LwHCDJ-30" value="&lt;ul style=&quot;box-sizing: border-box; margin-top: 15px; margin-bottom: 0px; margin-left: 0px; padding-left: 0px; font-size: 24px; text-align: left; list-style: outside url(&amp;quot;data:image/gif;base64,R0lGODlhBQAKAIABAAAAAP///yH5BAEAAAEALAAAAAAFAAoAAAIIjI+ZwKwPUQEAOw==&amp;quot;) !important;&quot;&gt;&lt;li style=&quot;box-sizing: border-box; font-feature-settings: &amp;quot;ss05&amp;quot;; margin: 0px 0px 15px; line-height: 30px; list-style: none; padding-left: 16px; position: relative; font-size: 24px;&quot;&gt;Duck Creek Technologies&lt;/li&gt;&lt;/ul&gt;" style="rounded=1;whiteSpace=wrap;html=1;strokeColor=#82b366;fontFamily=calibri;fontSize=24;fillColor=#d5e8d4;fontStyle=0;labelBackgroundColor=none;" parent="1" vertex="1">
          <mxGeometry x="392.5" y="289" width="290" height="60" as="geometry" />
        </mxCell>
        <mxCell id="CizckSoqbS4Y71LwHCDJ-32" value="&lt;ul style=&quot;box-sizing: border-box; margin-top: 15px; margin-bottom: 0px; margin-left: 0px; padding-left: 0px; font-size: 24px; text-align: left; list-style: outside url(&amp;quot;data:image/gif;base64,R0lGODlhBQAKAIABAAAAAP///yH5BAEAAAEALAAAAAAFAAoAAAIIjI+ZwKwPUQEAOw==&amp;quot;) !important;&quot;&gt;&lt;li style=&quot;box-sizing: border-box; font-feature-settings: &amp;quot;ss05&amp;quot;; margin: 0px 0px 15px; line-height: 30px; list-style: none; padding-left: 16px; position: relative; font-size: 24px;&quot;&gt;Guidewire&lt;/li&gt;&lt;/ul&gt;" style="rounded=1;whiteSpace=wrap;html=1;strokeColor=#82b366;fontFamily=calibri;fontSize=24;fillColor=#d5e8d4;fontStyle=0;labelBackgroundColor=none;" parent="1" vertex="1">
          <mxGeometry x="392.5" y="219" width="290" height="60" as="geometry" />
        </mxCell>
        <mxCell id="CizckSoqbS4Y71LwHCDJ-33" value="&lt;ul style=&quot;box-sizing: border-box; margin-top: 15px; margin-bottom: 0px; margin-left: 0px; padding-left: 0px; font-size: 24px; text-align: left; list-style: outside url(&amp;quot;data:image/gif;base64,R0lGODlhBQAKAIABAAAAAP///yH5BAEAAAEALAAAAAAFAAoAAAIIjI+ZwKwPUQEAOw==&amp;quot;) !important;&quot;&gt;&lt;li style=&quot;box-sizing: border-box; font-feature-settings: &amp;quot;ss05&amp;quot;; margin: 0px 0px 15px; line-height: 30px; list-style: none; padding-left: 16px; position: relative; font-size: 24px;&quot;&gt;Insuresoft&lt;/li&gt;&lt;/ul&gt;" style="rounded=1;whiteSpace=wrap;html=1;strokeColor=#82b366;fontFamily=calibri;fontSize=24;fillColor=#EAFFE9;fontStyle=1;labelBackgroundColor=none;" parent="1" vertex="1">
          <mxGeometry x="425" y="710" width="290" height="60" as="geometry" />
        </mxCell>
        <mxCell id="CizckSoqbS4Y71LwHCDJ-35" value="&lt;ul style=&quot;box-sizing: border-box; margin-top: 15px; margin-bottom: 0px; margin-left: 0px; padding-left: 0px; font-size: 24px; text-align: left; list-style: outside url(&amp;quot;data:image/gif;base64,R0lGODlhBQAKAIABAAAAAP///yH5BAEAAAEALAAAAAAFAAoAAAIIjI+ZwKwPUQEAOw==&amp;quot;) !important;&quot;&gt;&lt;li style=&quot;box-sizing: border-box; font-feature-settings: &amp;quot;ss05&amp;quot;; margin: 0px 0px 15px; line-height: 30px; list-style: none; padding-left: 16px; position: relative; font-size: 24px;&quot;&gt;Insurity&amp;nbsp;&lt;/li&gt;&lt;/ul&gt;" style="rounded=1;whiteSpace=wrap;html=1;strokeColor=#82b366;fontFamily=calibri;fontSize=24;fillColor=#EAFFE9;fontStyle=1;labelBackgroundColor=none;" parent="1" vertex="1">
          <mxGeometry x="425" y="633" width="290" height="60" as="geometry" />
        </mxCell>
        <mxCell id="CizckSoqbS4Y71LwHCDJ-36" value="&lt;ul style=&quot;box-sizing: border-box; margin-top: 15px; margin-bottom: 0px; margin-left: 0px; padding-left: 0px; font-size: 24px; text-align: left; list-style: outside url(&amp;quot;data:image/gif;base64,R0lGODlhBQAKAIABAAAAAP///yH5BAEAAAEALAAAAAAFAAoAAAIIjI+ZwKwPUQEAOw==&amp;quot;) !important;&quot;&gt;&lt;li style=&quot;box-sizing: border-box; font-feature-settings: &amp;quot;ss05&amp;quot;; margin: 0px 0px 15px; line-height: 30px; list-style: none; padding-left: 16px; position: relative; font-size: 24px;&quot;&gt;Insurity (Decisions Suite)&lt;/li&gt;&lt;/ul&gt;" style="rounded=1;whiteSpace=wrap;html=1;strokeColor=#82b366;fontFamily=calibri;fontSize=24;fillColor=#EAFFE9;fontStyle=1;labelBackgroundColor=none;" parent="1" vertex="1">
          <mxGeometry x="735" y="710" width="290" height="60" as="geometry" />
        </mxCell>
        <mxCell id="CizckSoqbS4Y71LwHCDJ-37" value="&lt;ul style=&quot;box-sizing: border-box; margin-top: 15px; margin-bottom: 0px; margin-left: 0px; padding-left: 0px; font-size: 24px; text-align: left; list-style: outside url(&amp;quot;data:image/gif;base64,R0lGODlhBQAKAIABAAAAAP///yH5BAEAAAEALAAAAAAFAAoAAAIIjI+ZwKwPUQEAOw==&amp;quot;) !important;&quot;&gt;&lt;li style=&quot;box-sizing: border-box; font-feature-settings: &amp;quot;ss05&amp;quot;; margin: 0px 0px 15px; line-height: 30px; list-style: none; padding-left: 16px; position: relative; font-size: 24px;&quot;&gt;Majesco&lt;/li&gt;&lt;/ul&gt;" style="rounded=1;whiteSpace=wrap;html=1;strokeColor=#82b366;fontFamily=calibri;fontSize=24;fillColor=#d5e8d4;fontStyle=0;labelBackgroundColor=none;" parent="1" vertex="1">
          <mxGeometry x="392.5" y="359" width="290" height="60" as="geometry" />
        </mxCell>
        <mxCell id="CizckSoqbS4Y71LwHCDJ-38" value="&lt;ul style=&quot;box-sizing: border-box; margin-top: 15px; margin-bottom: 0px; margin-left: 0px; padding-left: 0px; font-size: 24px; text-align: left; list-style: outside url(&amp;quot;data:image/gif;base64,R0lGODlhBQAKAIABAAAAAP///yH5BAEAAAEALAAAAAAFAAoAAAIIjI+ZwKwPUQEAOw==&amp;quot;) !important;&quot;&gt;&lt;li style=&quot;box-sizing: border-box; font-feature-settings: &amp;quot;ss05&amp;quot;; margin: 0px 0px 15px; line-height: 30px; list-style: none; padding-left: 16px; position: relative; font-size: 24px;&quot;&gt;OneShield&lt;/li&gt;&lt;/ul&gt;" style="rounded=1;whiteSpace=wrap;html=1;strokeColor=#82b366;fontFamily=calibri;fontSize=24;fillColor=#EAFFE9;spacing=2;fontStyle=1;labelBackgroundColor=none;" parent="1" vertex="1">
          <mxGeometry x="735" y="555" width="290" height="60" as="geometry" />
        </mxCell>
        <mxCell id="CizckSoqbS4Y71LwHCDJ-41" value="Sapiens" style="rounded=1;whiteSpace=wrap;html=1;strokeColor=#82b366;fontFamily=calibri;fontSize=24;fillColor=#EAFFE9;fontStyle=1;labelBackgroundColor=none;" parent="1" vertex="1">
          <mxGeometry x="735" y="633" width="290" height="60" as="geometry" />
        </mxCell>
        <mxCell id="DDqWL9d71qqnalIb0cQY-1" value="&lt;span data-reactroot=&quot;&quot; class=&quot;notion-enable-hover&quot; data-token-index=&quot;0&quot; style=&quot;font-size: 24px;&quot;&gt;&lt;span style=&quot;font-size: 24px;&quot;&gt;&lt;font style=&quot;font-size: 24px;&quot;&gt;Capacidades críticas(Gartner)&lt;/font&gt;&lt;/span&gt;&lt;/span&gt;" style="rounded=1;whiteSpace=wrap;html=1;fontFamily=calibri;fontSize=24;fontStyle=0;verticalAlign=middle;fillColor=#dae8fc;strokeColor=#6c8ebf;" vertex="1" parent="1">
          <mxGeometry x="762.5" y="219" width="285" height="60" as="geometry" />
        </mxCell>
        <mxCell id="DDqWL9d71qqnalIb0cQY-2" value="&lt;span data-reactroot=&quot;&quot; class=&quot;notion-enable-hover&quot; data-token-index=&quot;0&quot; style=&quot;font-size: 24px;&quot;&gt;&lt;span style=&quot;font-size: 24px;&quot;&gt;&lt;font style=&quot;font-size: 24px;&quot;&gt;Capacidades críticas(Gartner)&lt;/font&gt;&lt;/span&gt;&lt;/span&gt;" style="rounded=1;whiteSpace=wrap;html=1;fontFamily=calibri;fontSize=24;fontStyle=0;verticalAlign=middle;fillColor=#dae8fc;strokeColor=#6c8ebf;" vertex="1" parent="1">
          <mxGeometry x="762.5" y="289" width="285" height="60" as="geometry" />
        </mxCell>
        <mxCell id="DDqWL9d71qqnalIb0cQY-3" value="&lt;span data-reactroot=&quot;&quot; class=&quot;notion-enable-hover&quot; data-token-index=&quot;0&quot; style=&quot;font-size: 24px;&quot;&gt;&lt;span style=&quot;font-size: 24px;&quot;&gt;&lt;font style=&quot;font-size: 24px;&quot;&gt;Capacidades críticas(Gartner)&lt;/font&gt;&lt;/span&gt;&lt;/span&gt;" style="rounded=1;whiteSpace=wrap;html=1;fontFamily=calibri;fontSize=24;fontStyle=0;verticalAlign=middle;fillColor=#dae8fc;strokeColor=#6c8ebf;" vertex="1" parent="1">
          <mxGeometry x="762.5" y="359" width="285" height="60" as="geometry" />
        </mxCell>
        <mxCell id="DDqWL9d71qqnalIb0cQY-4" value="" style="rounded=1;whiteSpace=wrap;html=1;fontFamily=calibri;fontSize=24;fontStyle=0;verticalAlign=middle;" vertex="1" parent="1">
          <mxGeometry x="692.5" y="219" width="60" height="60" as="geometry" />
        </mxCell>
        <mxCell id="DDqWL9d71qqnalIb0cQY-5" value="" style="rounded=1;whiteSpace=wrap;html=1;fontFamily=calibri;fontSize=24;fontStyle=0;verticalAlign=middle;" vertex="1" parent="1">
          <mxGeometry x="692.5" y="289" width="60" height="60" as="geometry" />
        </mxCell>
        <mxCell id="DDqWL9d71qqnalIb0cQY-6" value="" style="rounded=1;whiteSpace=wrap;html=1;fontFamily=calibri;fontSize=24;fontStyle=0;verticalAlign=middle;" vertex="1" parent="1">
          <mxGeometry x="692.5" y="359" width="60" height="60" as="geometry" />
        </mxCell>
        <mxCell id="DDqWL9d71qqnalIb0cQY-7" value="" style="sketch=0;html=1;aspect=fixed;strokeColor=none;shadow=0;align=center;verticalAlign=top;fillColor=#2D9C5E;shape=mxgraph.gcp2.check;rounded=1;fontFamily=calibri;fontSize=24;fontColor=none;" vertex="1" parent="1">
          <mxGeometry x="702.5" y="233" width="40" height="32" as="geometry" />
        </mxCell>
        <mxCell id="DDqWL9d71qqnalIb0cQY-8" value="" style="sketch=0;html=1;aspect=fixed;strokeColor=none;shadow=0;align=center;verticalAlign=top;fillColor=#2D9C5E;shape=mxgraph.gcp2.check;rounded=1;fontFamily=calibri;fontSize=24;fontColor=none;" vertex="1" parent="1">
          <mxGeometry x="702.5" y="303" width="40" height="32" as="geometry" />
        </mxCell>
        <mxCell id="DDqWL9d71qqnalIb0cQY-9" value="" style="sketch=0;html=1;aspect=fixed;strokeColor=none;shadow=0;align=center;verticalAlign=top;fillColor=#2D9C5E;shape=mxgraph.gcp2.check;rounded=1;fontFamily=calibri;fontSize=24;fontColor=none;" vertex="1" parent="1">
          <mxGeometry x="702.5" y="367" width="40" height="32" as="geometry" />
        </mxCell>
        <mxCell id="DDqWL9d71qqnalIb0cQY-28" value="&lt;ul style=&quot;box-sizing: border-box; margin-top: 15px; margin-bottom: 0px; margin-left: 0px; padding-left: 0px; font-size: 24px; list-style: outside url(&amp;quot;data:image/gif;base64,R0lGODlhBQAKAIABAAAAAP///yH5BAEAAAEALAAAAAAFAAoAAAIIjI+ZwKwPUQEAOw==&amp;quot;) !important;&quot;&gt;&lt;li style=&quot;box-sizing: border-box; font-feature-settings: &amp;quot;ss05&amp;quot;; margin: 0px 0px 15px; line-height: 30px; list-style: none; padding-left: 16px; position: relative; font-size: 24px;&quot;&gt;&lt;font style=&quot;box-sizing: border-box; vertical-align: inherit; font-size: 24px;&quot;&gt;Integración y nuevas capacidades&lt;/font&gt;&lt;/li&gt;&lt;/ul&gt;" style="rounded=1;whiteSpace=wrap;html=1;fontFamily=calibri;fontSize=24;align=center;fillColor=#dae8fc;strokeColor=#6c8ebf;fontStyle=1;labelBackgroundColor=none;" vertex="1" parent="1">
          <mxGeometry x="90" y="140" width="260" height="70" as="geometry" />
        </mxCell>
        <mxCell id="DDqWL9d71qqnalIb0cQY-30" value="&lt;ul style=&quot;box-sizing: border-box; margin-top: 15px; margin-bottom: 0px; margin-left: 0px; padding-left: 0px; font-size: 24px; text-align: left; list-style: outside url(&amp;quot;data:image/gif;base64,R0lGODlhBQAKAIABAAAAAP///yH5BAEAAAEALAAAAAAFAAoAAAIIjI+ZwKwPUQEAOw==&amp;quot;) !important;&quot;&gt;&lt;li style=&quot;box-sizing: border-box; font-feature-settings: &amp;quot;ss05&amp;quot;; margin: 0px 0px 15px; line-height: 30px; list-style: none; padding-left: 16px; position: relative; font-size: 24px;&quot;&gt;&lt;font style=&quot;box-sizing: border-box; vertical-align: inherit; font-size: 24px;&quot;&gt;Gestión de facturación&lt;/font&gt;&lt;/li&gt;&lt;/ul&gt;" style="rounded=1;whiteSpace=wrap;html=1;fontFamily=calibri;fontSize=24;fillColor=#dae8fc;strokeColor=#6c8ebf;fontStyle=1;labelBackgroundColor=none;" vertex="1" parent="1">
          <mxGeometry x="87.5" y="430" width="260" height="60" as="geometry" />
        </mxCell>
      </root>
    </mxGraphModel>
  </diagram>
</mxfile>
